# xmcd
#
# Track frame offsets:
#	150
#	16171
#	32374
#	46857
#	62163
#	78101
#	95449
#	109979
#	124509
#	138538
#	152067
#	168958
#	183190
#	199509
#
# Disc length: 2881 seconds
#
# Revision: 1
# Processed by: cddbd v1.5.2PL0 Copyright (c) Steve Scherf et al.
# Submitted via: audiograbber 1.83.01
#
DISCID=a40b3f0e
DTITLE=Frans Bauer - Ganz tief ins Herz 
DYEAR=2002
DGENRE=Schlager
TTITLE0=Frans Bauer -  Torero
TTITLE1=Frans Bauer - Santa Lucia
TTITLE2=Frans Bauer -  Sehnsucht heißt der Himmel für verliebte
TTITLE3=Frans Bauer - Ganz tief ins Herz
TTITLE4=Frans Bauer - Lady
TTITLE5=Frans Bauer - Ich hör die Engel heut Nacht weinen
TTITLE6=Frans Bauer -  Ich hör die Engel heut Nacht weinen
TTITLE7=Frans Bauer -  Junge Herzen
TTITLE8=Frans Bauer -  Viva Holiday
TTITLE9=Frans Bauer - Bleib heut Nacht bei mir
TTITLE10=Frans Bauer -  In Venedig fängt der Himmel an
TTITLE11=Frans Bauer - Rosenrot und Himmelsblau
TTITLE12=Frans Bauer - Herzschlag bis zur Ewigkeit
TTITLE13=Frans Bauer -  Hasta Manana
EXTD=
EXTT0=
EXTT1=
EXTT2=
EXTT3=
EXTT4=
EXTT5=
EXTT6=
EXTT7=
EXTT8=
EXTT9=
EXTT10=
EXTT11=
EXTT12=
EXTT13=
PLAYORDER=
